<svg width="52" height="11" viewBox="0 0 52 11" fill="none" xmlns="http://www.w3.org/2000/svg">
<mask id="path-1-outside-1_3311_6" maskUnits="userSpaceOnUse" x="0" y="0" width="52" height="11" fill="black">
<rect fill="white" width="52" height="11"/>
<path d="M1.892 10L5.636 1.6H7.556L11.312 10H9.272L6.2 2.584H6.968L3.884 10H1.892ZM3.764 8.2L4.28 6.724H8.6L9.128 8.2H3.764ZM12.1835 10V1.6H13.7915L17.3675 7.528H16.5155L20.0315 1.6H21.6275L21.6515 10H19.8275L19.8155 4.396H20.1515L17.3435 9.112H16.4675L13.5995 4.396H14.0075V10H12.1835ZM23.6444 10V1.6H25.2524L28.8284 7.528H27.9764L31.4924 1.6H33.0884L33.1124 10H31.2884L31.2764 4.396H31.6124L28.8044 9.112H27.9284L25.0604 4.396H25.4684V10H23.6444ZM34.0014 10L37.7454 1.6H39.6654L43.4214 10H41.3814L38.3094 2.584H39.0774L35.9934 10H34.0014ZM35.8734 8.2L36.3894 6.724H40.7094L41.2374 8.2H35.8734ZM46.0809 4.984H50.1249V6.496H46.0809V4.984ZM46.2249 8.44H50.7969V10H44.2929V1.6H50.6409V3.16H46.2249V8.44Z"/>
</mask>
<path d="M1.892 10L5.636 1.6H7.556L11.312 10H9.272L6.2 2.584H6.968L3.884 10H1.892ZM3.764 8.2L4.28 6.724H8.6L9.128 8.2H3.764ZM12.1835 10V1.6H13.7915L17.3675 7.528H16.5155L20.0315 1.6H21.6275L21.6515 10H19.8275L19.8155 4.396H20.1515L17.3435 9.112H16.4675L13.5995 4.396H14.0075V10H12.1835ZM23.6444 10V1.6H25.2524L28.8284 7.528H27.9764L31.4924 1.6H33.0884L33.1124 10H31.2884L31.2764 4.396H31.6124L28.8044 9.112H27.9284L25.0604 4.396H25.4684V10H23.6444ZM34.0014 10L37.7454 1.6H39.6654L43.4214 10H41.3814L38.3094 2.584H39.0774L35.9934 10H34.0014ZM35.8734 8.2L36.3894 6.724H40.7094L41.2374 8.2H35.8734ZM46.0809 4.984H50.1249V6.496H46.0809V4.984ZM46.2249 8.44H50.7969V10H44.2929V1.6H50.6409V3.16H46.2249V8.44Z" fill="white"/>
<path d="M1.892 10L0.978619 9.59289L0.351452 11H1.892V10ZM5.636 1.6V0.599999H4.98688L4.72262 1.19289L5.636 1.6ZM7.556 1.6L8.4689 1.1918L8.20427 0.599999H7.556V1.6ZM11.312 10V11H12.8546L12.2249 9.59181L11.312 10ZM9.272 10L8.34813 10.3827L8.60384 11H9.272V10ZM6.2 2.584V1.584H4.70336L5.27613 2.9667L6.2 2.584ZM6.968 2.584L7.89134 2.96798L8.46688 1.584H6.968V2.584ZM3.884 10V11H4.55116L4.80734 10.384L3.884 10ZM3.764 8.2L2.82002 7.86999L2.35506 9.2H3.764V8.2ZM4.28 6.724V5.724H3.57025L3.33602 6.39399L4.28 6.724ZM8.6 6.724L9.54157 6.38718L9.30433 5.724H8.6V6.724ZM9.128 8.2V9.2H10.5478L10.0696 7.86318L9.128 8.2ZM1.892 10L2.80538 10.4071L6.54938 2.00711L5.636 1.6L4.72262 1.19289L0.978619 9.59289L1.892 10ZM5.636 1.6V2.6H7.556V1.6V0.599999H5.636V1.6ZM7.556 1.6L6.64311 2.00819L10.3991 10.4082L11.312 10L12.2249 9.59181L8.4689 1.1918L7.556 1.6ZM11.312 10V9H9.272V10V11H11.312V10ZM9.272 10L10.1959 9.6173L7.12387 2.2013L6.2 2.584L5.27613 2.9667L8.34813 10.3827L9.272 10ZM6.2 2.584V3.584H6.968V2.584V1.584H6.2V2.584ZM6.968 2.584L6.04466 2.20002L2.96066 9.61602L3.884 10L4.80734 10.384L7.89134 2.96798L6.968 2.584ZM3.884 10V9H1.892V10V11H3.884V10ZM3.764 8.2L4.70798 8.53001L5.22398 7.05401L4.28 6.724L3.33602 6.39399L2.82002 7.86999L3.764 8.2ZM4.28 6.724V7.724H8.6V6.724V5.724H4.28V6.724ZM8.6 6.724L7.65843 7.06082L8.18643 8.53682L9.128 8.2L10.0696 7.86318L9.54157 6.38718L8.6 6.724ZM9.128 8.2V7.2H3.764V8.2V9.2H9.128V8.2ZM12.1835 10H11.1835V11H12.1835V10ZM12.1835 1.6V0.599999H11.1835V1.6H12.1835ZM13.7915 1.6L14.6478 1.08347L14.3561 0.599999H13.7915V1.6ZM17.3675 7.528V8.528H19.1386L18.2238 7.01147L17.3675 7.528ZM16.5155 7.528L15.6554 7.01786L14.7597 8.528H16.5155V7.528ZM20.0315 1.6V0.599999H19.462L19.1714 1.08986L20.0315 1.6ZM21.6275 1.6L22.6275 1.59714L22.6246 0.599999H21.6275V1.6ZM21.6515 10V11H22.6544L22.6515 9.99714L21.6515 10ZM19.8275 10L18.8275 10.0021L18.8296 11H19.8275V10ZM19.8155 4.396V3.396H18.8134L18.8155 4.39814L19.8155 4.396ZM20.1515 4.396L21.0107 4.9076L21.9108 3.396H20.1515V4.396ZM17.3435 9.112V10.112H17.9119L18.2027 9.6236L17.3435 9.112ZM16.4675 9.112L15.6131 9.6316L15.9052 10.112H16.4675V9.112ZM13.5995 4.396V3.396H11.821L12.7451 4.9156L13.5995 4.396ZM14.0075 4.396H15.0075V3.396H14.0075V4.396ZM14.0075 10V11H15.0075V10H14.0075ZM12.1835 10H13.1835V1.6H12.1835H11.1835V10H12.1835ZM12.1835 1.6V2.6H13.7915V1.6V0.599999H12.1835V1.6ZM13.7915 1.6L12.9352 2.11653L16.5112 8.04453L17.3675 7.528L18.2238 7.01147L14.6478 1.08347L13.7915 1.6ZM17.3675 7.528V6.528H16.5155V7.528V8.528H17.3675V7.528ZM16.5155 7.528L17.3756 8.03814L20.8916 2.11014L20.0315 1.6L19.1714 1.08986L15.6554 7.01786L16.5155 7.528ZM20.0315 1.6V2.6H21.6275V1.6V0.599999H20.0315V1.6ZM21.6275 1.6L20.6275 1.60286L20.6515 10.0029L21.6515 10L22.6515 9.99714L22.6275 1.59714L21.6275 1.6ZM21.6515 10V9H19.8275V10V11H21.6515V10ZM19.8275 10L20.8275 9.99786L20.8155 4.39386L19.8155 4.396L18.8155 4.39814L18.8275 10.0021L19.8275 10ZM19.8155 4.396V5.396H20.1515V4.396V3.396H19.8155V4.396ZM20.1515 4.396L19.2923 3.8844L16.4843 8.6004L17.3435 9.112L18.2027 9.6236L21.0107 4.9076L20.1515 4.396ZM17.3435 9.112V8.112H16.4675V9.112V10.112H17.3435V9.112ZM16.4675 9.112L17.3219 8.5924L14.4539 3.8764L13.5995 4.396L12.7451 4.9156L15.6131 9.6316L16.4675 9.112ZM13.5995 4.396V5.396H14.0075V4.396V3.396H13.5995V4.396ZM14.0075 4.396H13.0075V10H14.0075H15.0075V4.396H14.0075ZM14.0075 10V9H12.1835V10V11H14.0075V10ZM23.6444 10H22.6444V11H23.6444V10ZM23.6444 1.6V0.599999H22.6444V1.6H23.6444ZM25.2524 1.6L26.1087 1.08347L25.8171 0.599999H25.2524V1.6ZM28.8284 7.528V8.528H30.5995L29.6847 7.01147L28.8284 7.528ZM27.9764 7.528L27.1163 7.01786L26.2207 8.528H27.9764V7.528ZM31.4924 1.6V0.599999H30.9229L30.6323 1.08986L31.4924 1.6ZM33.0884 1.6L34.0884 1.59714L34.0856 0.599999H33.0884V1.6ZM33.1124 10V11H34.1153L34.1124 9.99714L33.1124 10ZM31.2884 10L30.2884 10.0021L30.2906 11H31.2884V10ZM31.2764 4.396V3.396H30.2743L30.2764 4.39814L31.2764 4.396ZM31.6124 4.396L32.4717 4.9076L33.3717 3.396H31.6124V4.396ZM28.8044 9.112V10.112H29.3729L29.6637 9.6236L28.8044 9.112ZM27.9284 9.112L27.074 9.6316L27.3662 10.112H27.9284V9.112ZM25.0604 4.396V3.396H23.2819L24.206 4.9156L25.0604 4.396ZM25.4684 4.396H26.4684V3.396H25.4684V4.396ZM25.4684 10V11H26.4684V10H25.4684ZM23.6444 10H24.6444V1.6H23.6444H22.6444V10H23.6444ZM23.6444 1.6V2.6H25.2524V1.6V0.599999H23.6444V1.6ZM25.2524 1.6L24.3962 2.11653L27.9722 8.04453L28.8284 7.528L29.6847 7.01147L26.1087 1.08347L25.2524 1.6ZM28.8284 7.528V6.528H27.9764V7.528V8.528H28.8284V7.528ZM27.9764 7.528L28.8365 8.03814L32.3525 2.11014L31.4924 1.6L30.6323 1.08986L27.1163 7.01786L27.9764 7.528ZM31.4924 1.6V2.6H33.0884V1.6V0.599999H31.4924V1.6ZM33.0884 1.6L32.0884 1.60286L32.1124 10.0029L33.1124 10L34.1124 9.99714L34.0884 1.59714L33.0884 1.6ZM33.1124 10V9H31.2884V10V11H33.1124V10ZM31.2884 10L32.2884 9.99786L32.2764 4.39386L31.2764 4.396L30.2764 4.39814L30.2884 10.0021L31.2884 10ZM31.2764 4.396V5.396H31.6124V4.396V3.396H31.2764V4.396ZM31.6124 4.396L30.7532 3.8844L27.9452 8.6004L28.8044 9.112L29.6637 9.6236L32.4717 4.9076L31.6124 4.396ZM28.8044 9.112V8.112H27.9284V9.112V10.112H28.8044V9.112ZM27.9284 9.112L28.7828 8.5924L25.9148 3.8764L25.0604 4.396L24.206 4.9156L27.074 9.6316L27.9284 9.112ZM25.0604 4.396V5.396H25.4684V4.396V3.396H25.0604V4.396ZM25.4684 4.396H24.4684V10H25.4684H26.4684V4.396H25.4684ZM25.4684 10V9H23.6444V10V11H25.4684V10ZM34.0014 10L33.088 9.59289L32.4608 11H34.0014V10ZM37.7454 1.6V0.599999H37.0963L36.832 1.19289L37.7454 1.6ZM39.6654 1.6L40.5783 1.1918L40.3136 0.599999H39.6654V1.6ZM43.4214 10V11H44.9639L44.3343 9.59181L43.4214 10ZM41.3814 10L40.4575 10.3827L40.7132 11H41.3814V10ZM38.3094 2.584V1.584H36.8127L37.3855 2.9667L38.3094 2.584ZM39.0774 2.584L40.0007 2.96798L40.5763 1.584H39.0774V2.584ZM35.9934 10V11H36.6605L36.9167 10.384L35.9934 10ZM35.8734 8.2L34.9294 7.86999L34.4644 9.2H35.8734V8.2ZM36.3894 6.724V5.724H35.6796L35.4454 6.39399L36.3894 6.724ZM40.7094 6.724L41.6509 6.38718L41.4137 5.724H40.7094V6.724ZM41.2374 8.2V9.2H42.6572L42.1789 7.86318L41.2374 8.2ZM34.0014 10L34.9148 10.4071L38.6588 2.00711L37.7454 1.6L36.832 1.19289L33.088 9.59289L34.0014 10ZM37.7454 1.6V2.6H39.6654V1.6V0.599999H37.7454V1.6ZM39.6654 1.6L38.7525 2.00819L42.5085 10.4082L43.4214 10L44.3343 9.59181L40.5783 1.1918L39.6654 1.6ZM43.4214 10V9H41.3814V10V11H43.4214V10ZM41.3814 10L42.3052 9.6173L39.2332 2.2013L38.3094 2.584L37.3855 2.9667L40.4575 10.3827L41.3814 10ZM38.3094 2.584V3.584H39.0774V2.584V1.584H38.3094V2.584ZM39.0774 2.584L38.154 2.20002L35.07 9.61602L35.9934 10L36.9167 10.384L40.0007 2.96798L39.0774 2.584ZM35.9934 10V9H34.0014V10V11H35.9934V10ZM35.8734 8.2L36.8174 8.53001L37.3334 7.05401L36.3894 6.724L35.4454 6.39399L34.9294 7.86999L35.8734 8.2ZM36.3894 6.724V7.724H40.7094V6.724V5.724H36.3894V6.724ZM40.7094 6.724L39.7678 7.06082L40.2958 8.53682L41.2374 8.2L42.1789 7.86318L41.6509 6.38718L40.7094 6.724ZM41.2374 8.2V7.2H35.8734V8.2V9.2H41.2374V8.2ZM46.0809 4.984V3.984H45.0809V4.984H46.0809ZM50.1249 4.984H51.1249V3.984H50.1249V4.984ZM50.1249 6.496V7.496H51.1249V6.496H50.1249ZM46.0809 6.496H45.0809V7.496H46.0809V6.496ZM46.2249 8.44H45.2249V9.44H46.2249V8.44ZM50.7969 8.44H51.7969V7.44H50.7969V8.44ZM50.7969 10V11H51.7969V10H50.7969ZM44.2929 10H43.2929V11H44.2929V10ZM44.2929 1.6V0.599999H43.2929V1.6H44.2929ZM50.6409 1.6H51.6409V0.599999H50.6409V1.6ZM50.6409 3.16V4.16H51.6409V3.16H50.6409ZM46.2249 3.16V2.16H45.2249V3.16H46.2249ZM46.0809 4.984V5.984H50.1249V4.984V3.984H46.0809V4.984ZM50.1249 4.984H49.1249V6.496H50.1249H51.1249V4.984H50.1249ZM50.1249 6.496V5.496H46.0809V6.496V7.496H50.1249V6.496ZM46.0809 6.496H47.0809V4.984H46.0809H45.0809V6.496H46.0809ZM46.2249 8.44V9.44H50.7969V8.44V7.44H46.2249V8.44ZM50.7969 8.44H49.7969V10H50.7969H51.7969V8.44H50.7969ZM50.7969 10V9H44.2929V10V11H50.7969V10ZM44.2929 10H45.2929V1.6H44.2929H43.2929V10H44.2929ZM44.2929 1.6V2.6H50.6409V1.6V0.599999H44.2929V1.6ZM50.6409 1.6H49.6409V3.16H50.6409H51.6409V1.6H50.6409ZM50.6409 3.16V2.16H46.2249V3.16V4.16H50.6409V3.16ZM46.2249 3.16H45.2249V8.44H46.2249H47.2249V3.16H46.2249Z" fill="black" mask="url(#path-1-outside-1_3311_6)"/>
<path d="M1.892 10L0.978619 9.59289L0.351452 11H1.892V10ZM5.636 1.6V0.599999H4.98688L4.72262 1.19289L5.636 1.6ZM7.556 1.6L8.4689 1.1918L8.20427 0.599999H7.556V1.6ZM11.312 10V11H12.8546L12.2249 9.59181L11.312 10ZM9.272 10L8.34813 10.3827L8.60384 11H9.272V10ZM6.2 2.584V1.584H4.70336L5.27613 2.9667L6.2 2.584ZM6.968 2.584L7.89134 2.96798L8.46688 1.584H6.968V2.584ZM3.884 10V11H4.55116L4.80734 10.384L3.884 10ZM3.764 8.2L2.82002 7.86999L2.35506 9.2H3.764V8.2ZM4.28 6.724V5.724H3.57025L3.33602 6.39399L4.28 6.724ZM8.6 6.724L9.54157 6.38718L9.30433 5.724H8.6V6.724ZM9.128 8.2V9.2H10.5478L10.0696 7.86318L9.128 8.2ZM1.892 10L2.80538 10.4071L6.54938 2.00711L5.636 1.6L4.72262 1.19289L0.978619 9.59289L1.892 10ZM5.636 1.6V2.6H7.556V1.6V0.599999H5.636V1.6ZM7.556 1.6L6.64311 2.00819L10.3991 10.4082L11.312 10L12.2249 9.59181L8.4689 1.1918L7.556 1.6ZM11.312 10V9H9.272V10V11H11.312V10ZM9.272 10L10.1959 9.6173L7.12387 2.2013L6.2 2.584L5.27613 2.9667L8.34813 10.3827L9.272 10ZM6.2 2.584V3.584H6.968V2.584V1.584H6.2V2.584ZM6.968 2.584L6.04466 2.20002L2.96066 9.61602L3.884 10L4.80734 10.384L7.89134 2.96798L6.968 2.584ZM3.884 10V9H1.892V10V11H3.884V10ZM3.764 8.2L4.70798 8.53001L5.22398 7.05401L4.28 6.724L3.33602 6.39399L2.82002 7.86999L3.764 8.2ZM4.28 6.724V7.724H8.6V6.724V5.724H4.28V6.724ZM8.6 6.724L7.65843 7.06082L8.18643 8.53682L9.128 8.2L10.0696 7.86318L9.54157 6.38718L8.6 6.724ZM9.128 8.2V7.2H3.764V8.2V9.2H9.128V8.2ZM12.1835 10H11.1835V11H12.1835V10ZM12.1835 1.6V0.599999H11.1835V1.6H12.1835ZM13.7915 1.6L14.6478 1.08347L14.3561 0.599999H13.7915V1.6ZM17.3675 7.528V8.528H19.1386L18.2238 7.01147L17.3675 7.528ZM16.5155 7.528L15.6554 7.01786L14.7597 8.528H16.5155V7.528ZM20.0315 1.6V0.599999H19.462L19.1714 1.08986L20.0315 1.6ZM21.6275 1.6L22.6275 1.59714L22.6246 0.599999H21.6275V1.6ZM21.6515 10V11H22.6544L22.6515 9.99714L21.6515 10ZM19.8275 10L18.8275 10.0021L18.8296 11H19.8275V10ZM19.8155 4.396V3.396H18.8134L18.8155 4.39814L19.8155 4.396ZM20.1515 4.396L21.0107 4.9076L21.9108 3.396H20.1515V4.396ZM17.3435 9.112V10.112H17.9119L18.2027 9.6236L17.3435 9.112ZM16.4675 9.112L15.6131 9.6316L15.9052 10.112H16.4675V9.112ZM13.5995 4.396V3.396H11.821L12.7451 4.9156L13.5995 4.396ZM14.0075 4.396H15.0075V3.396H14.0075V4.396ZM14.0075 10V11H15.0075V10H14.0075ZM12.1835 10H13.1835V1.6H12.1835H11.1835V10H12.1835ZM12.1835 1.6V2.6H13.7915V1.6V0.599999H12.1835V1.6ZM13.7915 1.6L12.9352 2.11653L16.5112 8.04453L17.3675 7.528L18.2238 7.01147L14.6478 1.08347L13.7915 1.6ZM17.3675 7.528V6.528H16.5155V7.528V8.528H17.3675V7.528ZM16.5155 7.528L17.3756 8.03814L20.8916 2.11014L20.0315 1.6L19.1714 1.08986L15.6554 7.01786L16.5155 7.528ZM20.0315 1.6V2.6H21.6275V1.6V0.599999H20.0315V1.6ZM21.6275 1.6L20.6275 1.60286L20.6515 10.0029L21.6515 10L22.6515 9.99714L22.6275 1.59714L21.6275 1.6ZM21.6515 10V9H19.8275V10V11H21.6515V10ZM19.8275 10L20.8275 9.99786L20.8155 4.39386L19.8155 4.396L18.8155 4.39814L18.8275 10.0021L19.8275 10ZM19.8155 4.396V5.396H20.1515V4.396V3.396H19.8155V4.396ZM20.1515 4.396L19.2923 3.8844L16.4843 8.6004L17.3435 9.112L18.2027 9.6236L21.0107 4.9076L20.1515 4.396ZM17.3435 9.112V8.112H16.4675V9.112V10.112H17.3435V9.112ZM16.4675 9.112L17.3219 8.5924L14.4539 3.8764L13.5995 4.396L12.7451 4.9156L15.6131 9.6316L16.4675 9.112ZM13.5995 4.396V5.396H14.0075V4.396V3.396H13.5995V4.396ZM14.0075 4.396H13.0075V10H14.0075H15.0075V4.396H14.0075ZM14.0075 10V9H12.1835V10V11H14.0075V10ZM23.6444 10H22.6444V11H23.6444V10ZM23.6444 1.6V0.599999H22.6444V1.6H23.6444ZM25.2524 1.6L26.1087 1.08347L25.8171 0.599999H25.2524V1.6ZM28.8284 7.528V8.528H30.5995L29.6847 7.01147L28.8284 7.528ZM27.9764 7.528L27.1163 7.01786L26.2207 8.528H27.9764V7.528ZM31.4924 1.6V0.599999H30.9229L30.6323 1.08986L31.4924 1.6ZM33.0884 1.6L34.0884 1.59714L34.0856 0.599999H33.0884V1.6ZM33.1124 10V11H34.1153L34.1124 9.99714L33.1124 10ZM31.2884 10L30.2884 10.0021L30.2906 11H31.2884V10ZM31.2764 4.396V3.396H30.2743L30.2764 4.39814L31.2764 4.396ZM31.6124 4.396L32.4717 4.9076L33.3717 3.396H31.6124V4.396ZM28.8044 9.112V10.112H29.3729L29.6637 9.6236L28.8044 9.112ZM27.9284 9.112L27.074 9.6316L27.3662 10.112H27.9284V9.112ZM25.0604 4.396V3.396H23.2819L24.206 4.9156L25.0604 4.396ZM25.4684 4.396H26.4684V3.396H25.4684V4.396ZM25.4684 10V11H26.4684V10H25.4684ZM23.6444 10H24.6444V1.6H23.6444H22.6444V10H23.6444ZM23.6444 1.6V2.6H25.2524V1.6V0.599999H23.6444V1.6ZM25.2524 1.6L24.3962 2.11653L27.9722 8.04453L28.8284 7.528L29.6847 7.01147L26.1087 1.08347L25.2524 1.6ZM28.8284 7.528V6.528H27.9764V7.528V8.528H28.8284V7.528ZM27.9764 7.528L28.8365 8.03814L32.3525 2.11014L31.4924 1.6L30.6323 1.08986L27.1163 7.01786L27.9764 7.528ZM31.4924 1.6V2.6H33.0884V1.6V0.599999H31.4924V1.6ZM33.0884 1.6L32.0884 1.60286L32.1124 10.0029L33.1124 10L34.1124 9.99714L34.0884 1.59714L33.0884 1.6ZM33.1124 10V9H31.2884V10V11H33.1124V10ZM31.2884 10L32.2884 9.99786L32.2764 4.39386L31.2764 4.396L30.2764 4.39814L30.2884 10.0021L31.2884 10ZM31.2764 4.396V5.396H31.6124V4.396V3.396H31.2764V4.396ZM31.6124 4.396L30.7532 3.8844L27.9452 8.6004L28.8044 9.112L29.6637 9.6236L32.4717 4.9076L31.6124 4.396ZM28.8044 9.112V8.112H27.9284V9.112V10.112H28.8044V9.112ZM27.9284 9.112L28.7828 8.5924L25.9148 3.8764L25.0604 4.396L24.206 4.9156L27.074 9.6316L27.9284 9.112ZM25.0604 4.396V5.396H25.4684V4.396V3.396H25.0604V4.396ZM25.4684 4.396H24.4684V10H25.4684H26.4684V4.396H25.4684ZM25.4684 10V9H23.6444V10V11H25.4684V10ZM34.0014 10L33.088 9.59289L32.4608 11H34.0014V10ZM37.7454 1.6V0.599999H37.0963L36.832 1.19289L37.7454 1.6ZM39.6654 1.6L40.5783 1.1918L40.3136 0.599999H39.6654V1.6ZM43.4214 10V11H44.9639L44.3343 9.59181L43.4214 10ZM41.3814 10L40.4575 10.3827L40.7132 11H41.3814V10ZM38.3094 2.584V1.584H36.8127L37.3855 2.9667L38.3094 2.584ZM39.0774 2.584L40.0007 2.96798L40.5763 1.584H39.0774V2.584ZM35.9934 10V11H36.6605L36.9167 10.384L35.9934 10ZM35.8734 8.2L34.9294 7.86999L34.4644 9.2H35.8734V8.2ZM36.3894 6.724V5.724H35.6796L35.4454 6.39399L36.3894 6.724ZM40.7094 6.724L41.6509 6.38718L41.4137 5.724H40.7094V6.724ZM41.2374 8.2V9.2H42.6572L42.1789 7.86318L41.2374 8.2ZM34.0014 10L34.9148 10.4071L38.6588 2.00711L37.7454 1.6L36.832 1.19289L33.088 9.59289L34.0014 10ZM37.7454 1.6V2.6H39.6654V1.6V0.599999H37.7454V1.6ZM39.6654 1.6L38.7525 2.00819L42.5085 10.4082L43.4214 10L44.3343 9.59181L40.5783 1.1918L39.6654 1.6ZM43.4214 10V9H41.3814V10V11H43.4214V10ZM41.3814 10L42.3052 9.6173L39.2332 2.2013L38.3094 2.584L37.3855 2.9667L40.4575 10.3827L41.3814 10ZM38.3094 2.584V3.584H39.0774V2.584V1.584H38.3094V2.584ZM39.0774 2.584L38.154 2.20002L35.07 9.61602L35.9934 10L36.9167 10.384L40.0007 2.96798L39.0774 2.584ZM35.9934 10V9H34.0014V10V11H35.9934V10ZM35.8734 8.2L36.8174 8.53001L37.3334 7.05401L36.3894 6.724L35.4454 6.39399L34.9294 7.86999L35.8734 8.2ZM36.3894 6.724V7.724H40.7094V6.724V5.724H36.3894V6.724ZM40.7094 6.724L39.7678 7.06082L40.2958 8.53682L41.2374 8.2L42.1789 7.86318L41.6509 6.38718L40.7094 6.724ZM41.2374 8.2V7.2H35.8734V8.2V9.2H41.2374V8.2ZM46.0809 4.984V3.984H45.0809V4.984H46.0809ZM50.1249 4.984H51.1249V3.984H50.1249V4.984ZM50.1249 6.496V7.496H51.1249V6.496H50.1249ZM46.0809 6.496H45.0809V7.496H46.0809V6.496ZM46.2249 8.44H45.2249V9.44H46.2249V8.44ZM50.7969 8.44H51.7969V7.44H50.7969V8.44ZM50.7969 10V11H51.7969V10H50.7969ZM44.2929 10H43.2929V11H44.2929V10ZM44.2929 1.6V0.599999H43.2929V1.6H44.2929ZM50.6409 1.6H51.6409V0.599999H50.6409V1.6ZM50.6409 3.16V4.16H51.6409V3.16H50.6409ZM46.2249 3.16V2.16H45.2249V3.16H46.2249ZM46.0809 4.984V5.984H50.1249V4.984V3.984H46.0809V4.984ZM50.1249 4.984H49.1249V6.496H50.1249H51.1249V4.984H50.1249ZM50.1249 6.496V5.496H46.0809V6.496V7.496H50.1249V6.496ZM46.0809 6.496H47.0809V4.984H46.0809H45.0809V6.496H46.0809ZM46.2249 8.44V9.44H50.7969V8.44V7.44H46.2249V8.44ZM50.7969 8.44H49.7969V10H50.7969H51.7969V8.44H50.7969ZM50.7969 10V9H44.2929V10V11H50.7969V10ZM44.2929 10H45.2929V1.6H44.2929H43.2929V10H44.2929ZM44.2929 1.6V2.6H50.6409V1.6V0.599999H44.2929V1.6ZM50.6409 1.6H49.6409V3.16H50.6409H51.6409V1.6H50.6409ZM50.6409 3.16V2.16H46.2249V3.16V4.16H50.6409V3.16ZM46.2249 3.16H45.2249V8.44H46.2249H47.2249V3.16H46.2249Z" fill="black" fill-opacity="0.2" mask="url(#path-1-outside-1_3311_6)"/>
</svg>
